<svg xmlns="http://www.w3.org/2000/svg" width="64" height="64" fill="none"><g opacity=".78"><path fill="#19BCFE" d="M42.67 42.67a10.67 10.67 0 1 0 0-21.34 10.67 10.67 0 0 0 0 21.34Z"/><path fill="#09CF83" fill-rule="evenodd" d="M21.33 64A10.67 10.67 0 0 0 32 53.33V42.67H21.33a10.67 10.67 0 1 0 0 21.33Z" clip-rule="evenodd"/><path fill="#A259FF" fill-rule="evenodd" d="M21.33 42.67H32V21.33H21.33a10.67 10.67 0 1 0 0 21.34Z" clip-rule="evenodd"/><path fill="#F24E1E" fill-rule="evenodd" d="M21.33 21.33H32V0H21.33a10.67 10.67 0 1 0 0 21.33Z" clip-rule="evenodd"/><path fill="#FF7262" fill-rule="evenodd" d="M42.67 21.33H32V0h10.67a10.67 10.67 0 0 1 0 21.33Z" clip-rule="evenodd"/></g></svg>