<svg xmlns="http://www.w3.org/2000/svg" width="64" height="64" fill="none"><g opacity=".78"><path fill="url(#a)" d="M19.73 32.8c-7.8 5.74-9.33 14.13-9.33 21.13.36-2.09 1.99-6.98 5.67-9.86 5.46-4.28 15.46-2.87 26.4-10.14 10.93-7.26 12-16.73 10.6-24-.98 7.02-4.3 10.07-8.87 12.8-9.93 5.94-16.13 3.94-24.47 10.07Z"/><path fill="url(#b)" d="M19.73 32.8c-7.8 5.74-9.33 14.13-9.33 21.13.36-2.09 1.99-6.98 5.67-9.86 5.46-4.28 15.46-2.87 26.4-10.14 10.93-7.26 12-16.73 10.6-24-.98 7.02-4.3 10.07-8.87 12.8-9.93 5.94-16.13 3.94-24.47 10.07Z"/><path fill="url(#c)" d="M10.5 51.06c.42-6.32 2.47-13.29 9.23-18.26 4.35-3.2 8.11-4.18 12.13-5.24a54.67 54.67 0 0 0 7.45-2.36c-.98.93-5.62 3.11-9.13 4.57-3.5 1.45-7.18 2.98-10.25 5.03-6.15 4.1-8.66 11.25-9.44 16.26Z"/><path fill="url(#d)" d="M10.5 51.06c.42-6.32 2.47-13.29 9.23-18.26 4.35-3.2 8.11-4.18 12.13-5.24a54.67 54.67 0 0 0 7.45-2.36c-.98.93-5.62 3.11-9.13 4.57-3.5 1.45-7.18 2.98-10.25 5.03-6.15 4.1-8.66 11.25-9.44 16.26Z"/><path fill="url(#e)" d="M48.44 28.74c-.77.75-1.63 1.42-2.57 2-4.27 2.55-8.8 3.38-13.22 4.18-3.51.64-6.95 1.27-10.12 2.75C15.4 41 11 47.93 10.4 53.93a26.03 26.03 0 0 1 .26-3.84c.94-4.93 3.5-11.44 9.27-15.29a49.66 49.66 0 0 1 8.1-4.13c2.47-.81 4.7-1.32 6.83-1.8 3.35-.76 6.44-1.46 9.8-3.2 7.07-3.67 8.93-11.2 8.43-15.62 1.06 5.61.63 12.51-4.65 18.7Z"/><path fill="url(#f)" d="M48.44 28.74c-.77.75-1.63 1.43-2.57 2-4.27 2.55-8.8 3.38-13.22 4.18-3.51.64-6.95 1.27-10.12 2.75a21.97 21.97 0 0 0-9.39 8.46c1.85-2.6 4.66-5.5 8.13-6.6 3.38-1.07 6.61-1.18 9.96-1.3l2.92-.12a38.86 38.86 0 0 0 8.32-4.18 28.56 28.56 0 0 0 5.97-5.19Z"/><path fill="url(#g)" d="M48.44 28.74c-.77.75-1.63 1.43-2.57 2-4.27 2.55-8.8 3.38-13.22 4.18-3.51.64-6.95 1.27-10.12 2.75a21.97 21.97 0 0 0-9.39 8.46c1.85-2.6 4.66-5.5 8.13-6.6 3.38-1.07 6.61-1.18 9.96-1.3l2.92-.12a38.86 38.86 0 0 0 8.32-4.18 28.56 28.56 0 0 0 5.97-5.19Z"/><path fill="url(#h)" d="m53.09 10.05-.02-.12c-.98 7.02-4.3 10.07-8.87 12.8a37.45 37.45 0 0 1-4.89 2.47c-.98.93-5.62 3.11-9.13 4.57l-2.15.9a72.08 72.08 0 0 1 6.83-1.8c3.35-.76 6.44-1.46 9.8-3.2 7.07-3.67 8.93-11.2 8.43-15.62Z"/><path fill="url(#i)" d="m53.09 10.05-.02-.12c-.98 7.02-4.3 10.07-8.87 12.8a37.45 37.45 0 0 1-4.89 2.47c-.98.93-5.62 3.11-9.13 4.57l-2.15.9a72.08 72.08 0 0 1 6.83-1.8c3.35-.76 6.44-1.46 9.8-3.2 7.07-3.67 8.93-11.2 8.43-15.62Z"/></g><defs><linearGradient id="a" x1="34.8" x2="11.73" y1="36.4" y2="52.93" gradientUnits="userSpaceOnUse"><stop stop-color="#FE5004"/><stop offset=".6" stop-color="#FFB915"/><stop offset="1" stop-color="#FFFC41"/></linearGradient><linearGradient id="b" x1="25.67" x2="25.8" y1="37.8" y2="40.2" gradientUnits="userSpaceOnUse"><stop stop-color="#FD3E00"/><stop offset="1" stop-color="#FD4400" stop-opacity="0"/></linearGradient><linearGradient id="c" x1="39.33" x2="6.8" y1="24" y2="52.93" gradientUnits="userSpaceOnUse"><stop stop-color="#005FC6"/><stop offset=".28" stop-color="#23A4DF"/><stop offset=".47" stop-color="#3AC2B7"/><stop offset=".64" stop-color="#60EC7A"/><stop offset=".82" stop-color="#CFFDBD"/><stop offset="1" stop-color="#D0FCB6"/></linearGradient><linearGradient id="d" x1="32.73" x2="29.93" y1="29.53" y2="27" gradientUnits="userSpaceOnUse"><stop stop-color="#0061CB"/><stop offset="1" stop-color="#067EEA" stop-opacity="0"/></linearGradient><linearGradient id="e" x1="53.2" x2="10.4" y1="10" y2="53.87" gradientUnits="userSpaceOnUse"><stop stop-color="#8E55F1"/><stop offset=".14" stop-color="#8B48DF"/><stop offset=".27" stop-color="#E04DD9"/><stop offset=".49" stop-color="#F496C8"/><stop offset=".63" stop-color="#FAD2BA"/><stop offset=".86" stop-color="#FEF7E5"/><stop offset="1" stop-color="#FFF5BF"/></linearGradient><linearGradient id="f" x1="49" x2="14.07" y1="28.33" y2="44.13" gradientUnits="userSpaceOnUse"><stop stop-color="#F41A73"/><stop offset=".4" stop-color="#FC50A3"/><stop offset=".58" stop-color="#FE9485"/><stop offset=".7" stop-color="#FFAF88"/><stop offset="1" stop-color="#FFC385"/></linearGradient><linearGradient id="g" x1="36.4" x2="36.47" y1="33.2" y2="36.4" gradientUnits="userSpaceOnUse"><stop stop-color="#9B0008"/><stop offset="1" stop-color="#EA115A" stop-opacity="0"/></linearGradient><linearGradient id="h" x1="53.2" x2="21.67" y1="13.6" y2="34.2" gradientUnits="userSpaceOnUse"><stop stop-color="#231283"/><stop offset=".36" stop-color="#7053C6"/><stop offset=".47" stop-color="#7272DB"/><stop offset=".63" stop-color="#399EE9"/><stop offset="1" stop-color="#00CFFF"/></linearGradient><linearGradient id="i" x1="45.33" x2="46.73" y1="24" y2="25.8" gradientUnits="userSpaceOnUse"><stop stop-color="#3F259D" stop-opacity="0"/><stop offset="1" stop-color="#412DAA"/></linearGradient></defs></svg>