<svg xmlns="http://www.w3.org/2000/svg" width="589" height="568" fill="none"><path fill="url(#a)" d="M335.43 255.34c-7.23-4.16-12.41-4.25-15.56-.34-3.23 3.92-4.76 10.55-4.76 19.81v50.16c0 9.52-.85 17.43-2.63 23.72-1.79 6.54-4.76 11.13-8.84 13.85-4 2.81-9.44 3.49-16.32 2.21-6.72-1.19-15.13-4.76-25.17-10.54l-4.75-2.8v-39.53l6.03 3.48c7.23 4.17 11.99 4.68 14.37 1.7 2.55-2.97 3.82-9.1 3.82-18.36v-44.2c0-11.57 1.1-20.66 3.4-27.3 2.21-6.71 6.72-10.96 13.43-12.83-6.71-9.6-11.22-19.13-13.43-28.4-2.2-9.26-3.31-19.63-3.31-31.2v-44.2c0-9.27-1.28-16.92-3.83-22.78-2.38-5.79-7.22-10.8-14.36-14.97l-6.04-3.48V29.8l4.76 2.8c10.03 5.78 18.45 11.99 25.16 18.53 6.89 6.64 12.33 13.6 16.32 21.09a81.76 81.76 0 0 1 8.84 24.06 127.69 127.69 0 0 1 2.64 26.77v50.16c0 9.27 1.61 17.77 4.76 25.34a36.08 36.08 0 0 0 15.56 17.6l-.09 39.18Z" opacity=".4"/><path fill="url(#b)" d="M153.35 110.06c7.22 4.16 12.4 4.25 15.56.34 3.22-3.91 4.75-10.54 4.75-19.8V40.42c0-9.52.85-17.42 2.64-23.71 1.78-6.55 4.67-11.14 8.67-13.95 4.17-2.72 9.6-3.4 16.32-2.2 6.89 1.27 15.39 4.84 25.42 10.7l4.76 2.81v39.53l-6.04-3.49c-7.22-4.16-12.07-4.76-14.62-1.78-2.38 3.06-3.57 9.18-3.57 18.53v44.2c0 11.49-1.1 20.67-3.4 27.3-2.2 6.71-6.71 10.96-13.43 12.83 6.72 9.61 11.22 19.13 13.43 28.4 2.21 9.27 3.32 19.64 3.32 31.2V255c0 9.27 1.19 16.84 3.57 22.7 2.55 5.87 7.4 10.97 14.62 15.05l6.03 3.49v39.53l-4.76-2.81c-10.03-5.78-18.53-12.07-25.41-18.62a90.17 90.17 0 0 1-16.33-21.08c-3.99-7.4-6.88-15.39-8.58-23.89a127.75 127.75 0 0 1-2.64-26.78v-50.16c0-9.26-1.61-17.76-4.75-25.33a36.1 36.1 0 0 0-15.56-17.6v-39.44Z" opacity=".4"/><path fill="url(#c)" d="m360 10.93 179.44 103.63-.08 430.25L359.9 441.27 360 10.93Z" opacity=".15"/><path fill="#587298" d="m326.25 67.3 142.8 82.37v39.54l-142.8-82.38V67.3Z"/><path fill="url(#d)" d="m383.37 250.33 135.33 78.12v119.62l-135.33-78.13V250.33Z" opacity=".2"/><path fill="#fff" d="m382.01 158.6 137.37 79.32v13.51l-137.37-79.31V158.6ZM382.01 185.8l118.75 68.52v13.52l-118.75-68.52V185.8ZM382.01 212.67l100.82 58.15v13.51L382 226.2v-13.52Z" opacity=".15"/><path fill="url(#e)" d="m360 10.93 179.44 103.63v57.64L359.91 68.66l.09-57.73Z" opacity=".2"/><path fill="#fff" d="M404.8 66.02c0 8.76-5.1 12.84-11.4 9.18-6.29-3.65-11.39-13.6-11.39-22.35 0-8.76 5.1-12.84 11.4-9.19 6.28 3.66 11.38 13.7 11.38 22.36Z" opacity=".2"/><path fill="url(#f)" d="M36.64 142.7 589 461.5l-.09 430.5L36.55 573.2l.09-430.5Z" opacity=".15"/><path fill="#EA8C4F" d="m0 248.8 142.72 82.38v39.52L0 288.41V248.8Z"/><path fill="#fff" d="m73.87 357.44 316.9 182.95v13.52L73.87 370.96v-13.52ZM73.87 384.65l273.38 157.78v13.52L73.87 398.16v-13.51ZM73.87 411.6 306.53 545.9v13.52L73.87 425.11V411.6Z" opacity=".15"/><path fill="url(#g)" d="m22.02 425.03 231.97 133.9v119.6L22.03 544.56V425.03Z" opacity=".2"/><path fill="#fff" d="M45.4 469.15 229.67 575.5v13.52L45.4 482.67v-13.52ZM45.4 496.35l147.56 85.19v13.51L45.4 509.8v-13.44Z" opacity=".15"/><path fill="url(#h)" d="m36.64 142.7 551.6 318.46v58.32L36.63 201.1v-58.4Z" opacity=".2"/><path fill="#fff" d="M96.74 206.55c0 8.75-5.1 12.83-11.4 9.18-6.29-3.66-11.39-13.6-11.39-22.36s5.1-12.84 11.4-9.18c6.29 3.66 11.39 13.69 11.39 22.36Z" opacity=".2"/><defs><linearGradient id="a" x1="384.36" x2="245.12" y1="17.88" y2="259.24" gradientUnits="userSpaceOnUse"><stop stop-color="#424C57"/><stop offset=".9" stop-color="#fff" stop-opacity="0"/></linearGradient><linearGradient id="b" x1="303.98" x2="164.73" y1="1.51" y2="242.84" gradientUnits="userSpaceOnUse"><stop stop-color="#414B56"/><stop offset=".9" stop-color="#fff" stop-opacity="0"/></linearGradient><linearGradient id="c" x1="542.82" x2="371.21" y1="116.52" y2="413.81" gradientUnits="userSpaceOnUse"><stop stop-color="#fff"/><stop offset="1" stop-color="#fff" stop-opacity="0"/></linearGradient><linearGradient id="d" x1="476.95" x2="429.25" y1="304.29" y2="386.91" gradientUnits="userSpaceOnUse"><stop stop-color="#fff"/><stop offset="1" stop-color="#fff" stop-opacity="0"/></linearGradient><linearGradient id="e" x1="421.52" x2="476.24" y1="11.83" y2="166.74" gradientUnits="userSpaceOnUse"><stop stop-color="#424C58"/><stop offset="1" stop-color="#fff" stop-opacity="0"/></linearGradient><linearGradient id="f" x1="405.97" x2="315.07" y1="355.86" y2="513.36" gradientUnits="userSpaceOnUse"><stop stop-color="#fff"/><stop offset="1" stop-color="#fff" stop-opacity="0"/></linearGradient><linearGradient id="g" x1="163.89" x2="116.19" y1="506.88" y2="589.51" gradientUnits="userSpaceOnUse"><stop stop-color="#434D58"/><stop offset="1" stop-color="#fff" stop-opacity="0"/></linearGradient><linearGradient id="h" x1="173.5" x2="382.97" y1="95.71" y2="450.52" gradientUnits="userSpaceOnUse"><stop stop-color="#546F94"/><stop offset="1" stop-color="#fff" stop-opacity="0"/></linearGradient></defs></svg>