<svg xmlns="http://www.w3.org/2000/svg" width="38" height="38" fill="none"><rect width="38" height="38" fill="#FF6E30" rx="8"/><path fill="#fff" fill-rule="evenodd" d="M19.96 12.44c-.33 0-.65.04-.96.11.2-1.79.91-3.43 2-4.76a8.67 8.67 0 0 1 7.63 8.61v6.33a9.17 9.17 0 0 1-8.53-4.69h3.83V16.4c0-2.19-1.77-3.96-3.97-3.96Z" clip-rule="evenodd"/><path fill="#fff" fill-rule="evenodd" d="M9.26 16.95a9.64 9.64 0 0 1 10.26-9.62 10.1 10.1 0 0 0-2.6 7.38 2.99 2.99 0 0 0-1.01 2.24v.67h5.98-4.37a10.15 10.15 0 0 0 11.02 6.54v4.1H21.9v-4h-5.98v4H9.26V16.95Z" clip-rule="evenodd"/></svg>