<svg xmlns="http://www.w3.org/2000/svg" width="20" height="22" fill="none"><path fill="#fff" fill-rule="evenodd" d="M10.96 5.44c-.33 0-.65.04-.96.11.2-1.79.91-3.43 2-4.76a8.67 8.67 0 0 1 7.63 8.61v6.33a9.17 9.17 0 0 1-8.53-4.69h3.83V9.4c0-2.19-1.77-3.96-3.97-3.96Z" clip-rule="evenodd"/><path fill="#fff" fill-rule="evenodd" d="M.26 9.95A9.64 9.64 0 0 1 10.52.33a10.1 10.1 0 0 0-2.6 7.38 2.99 2.99 0 0 0-1.01 2.24v.67h5.98-4.37a10.15 10.15 0 0 0 11.02 6.54v4.1H12.9v-4H6.91v4H.26V9.95Z" clip-rule="evenodd"/></svg>